# xmcd CD database file
#
# Track frame offsets:
#	150
#	11464
#	24488
#	38253
#	51423
#	65850
#	78836
#	91082
#	102298
#	115061
#	129135
#	142851
#	155896
#	169238
#	181097
#	193711
#	204875
#	216977
#
# Disc length: 3061 seconds
#
# Revision: 0
# Processed by: cddbd v1.5.2PL0 Copyright (c) Steve Scherf et al.
# Submitted via: CDex 2.01
#
DISCID=e60bf312
DTITLE=Various Artist - The J.O.B Records Blues Story D2
DYEAR=2012
DGENRE=Blues
TTITLE0=Johnny Shines - Evening sun
TTITLE1=John Brim and His Trio - Drinking woman
TTITLE2=Baby Face Leroy Foster - Blues is killin' me
TTITLE3=J.B. Lenoir - The mojo
TTITLE4=Floyd Jones - On the road again
TTITLE5=Snooky Pryor - Cryin' shame
TTITLE6=Little Hudson and His Red Devil Trio - Rough treatment
TTITLE7=Memphis Winnie - Kissing in the dark
TTITLE8=J.B. Lenoir - Play a little while
TTITLE9=Little Son Joe - Ethel Bea
TTITLE10=Little Brother Montgomery - Keep drinkin'
TTITLE11=Rober Dunbar and Eagle-Aires of Chicago - Number one baby
TTITLE12=Sunnyland Slim - Woman trouble
TTITLE13=Robert Jr. Lockwood - Aw aw
TTITLE14=Sunnyland Slim - That woman
TTITLE15=Ernest Cotton - Going back to Memphis
TTITLE16=Eddie King - Shakin' inside
TTITLE17=Snooky Pryor - Boogie twist
EXTD=YEAR: 2012
EXTT0=
EXTT1=
EXTT2=
EXTT3=
EXTT4=
EXTT5=
EXTT6=
EXTT7=
EXTT8=
EXTT9=
EXTT10=
EXTT11=
EXTT12=
EXTT13=
EXTT14=
EXTT15=
EXTT16=
EXTT17=
PLAYORDER=
